<svg width="289" height="289" viewBox="0 0 289 289" fill="none" xmlns="http://www.w3.org/2000/svg">
    <g clip-path="url(#clip0_81_2)">
        <path d="M334.879 317.9L264.074 266.241L187.85 238.425L111.626 194.352L14.45 216.389L106.569 275.995L45.6981 317.719L14.45 216.389L-71.1663 178.096L36.8475 137.997L-11.1988 82.7262L45.6981 28.7193L-24.9263 -22.7588M277.801 82.7262L374.616 94.2501L277.801 82.7262Z" stroke="#3B3E52" stroke-opacity="0.4" stroke-width="0.36125"/>
        <path d="M133.663 326.931L106.569 275.995M-11.1988 82.7263L85.6163 94.2863L140.888 137.998L217.834 178.096L111.446 194.172L36.6669 137.817L-11.1988 82.7263Z" stroke="#3B3E52" stroke-opacity="0.4" stroke-width="0.36125"/>
        <path d="M187.85 238.425L208.803 304.173L264.074 266.241L303.45 216.389L217.834 178.096L187.85 238.425ZM187.85 238.425L106.569 275.995L111.626 194.353L140.888 137.998L194.714 97.1762L277.801 82.7262L208.622 14.9919L133.663 37.9312L106.569 -13.005L45.6981 28.7194L85.6162 94.2862L36.8475 137.998L14.45 216.389L-24.9263 266.241L45.8787 317.9" stroke="#3B3E52" stroke-opacity="0.4" stroke-width="0.36125"/>
        <path d="M140.888 137.997H36.8475M187.85 -50.575L208.983 15.3531L264.074 -22.7588L187.85 -50.575ZM217.834 178.096L194.714 97.1762L85.6163 94.2862L133.663 37.9312L217.834 178.096ZM325.848 137.997L194.714 97.1762L325.848 137.997Z" stroke="#3B3E52" stroke-opacity="0.4" stroke-width="0.36125"/>
        <path d="M36.8475 137.997L-94.2863 97.1762M-80.1975 15.1725L45.6981 28.7194L133.663 37.9312L194.714 97.1762L208.622 14.9919L334.879 28.9L277.801 82.7262L325.848 137.997L217.834 178.096L264.074 266.241L-80.1975 15.1725ZM106.569 -13.005L208.622 14.9919L106.569 -13.005ZM208.803 304.172L106.569 275.995L208.803 304.172ZM14.45 -72.6113L45.8788 28.9L14.45 -72.6113Z" stroke="#3B3E52" stroke-opacity="0.4" stroke-width="0.36125"/>
        <path d="M277.801 84.5325C278.799 84.5325 279.607 83.7239 279.607 82.7263C279.607 81.7287 278.799 80.92 277.801 80.92C276.804 80.92 275.995 81.7287 275.995 82.7263C275.995 83.7239 276.804 84.5325 277.801 84.5325Z" fill="#535773" fill-opacity="0.4"/>
        <path d="M194.714 98.9825C195.711 98.9825 196.52 98.1738 196.52 97.1762C196.52 96.1787 195.711 95.37 194.714 95.37C193.716 95.37 192.908 96.1787 192.908 97.1762C192.908 98.1738 193.716 98.9825 194.714 98.9825Z" fill="#535773" fill-opacity="0.4"/>
        <path d="M217.834 179.903C218.831 179.903 219.64 179.094 219.64 178.096C219.64 177.099 218.831 176.29 217.834 176.29C216.836 176.29 216.027 177.099 216.027 178.096C216.027 179.094 216.836 179.903 217.834 179.903Z" fill="#535773" fill-opacity="0.4"/>
        <path d="M264.074 268.048C265.071 268.048 265.88 267.239 265.88 266.241C265.88 265.244 265.071 264.435 264.074 264.435C263.076 264.435 262.268 265.244 262.268 266.241C262.268 267.239 263.076 268.048 264.074 268.048Z" fill="#535773" fill-opacity="0.4"/>
        <path d="M187.85 240.231C188.848 240.231 189.656 239.423 189.656 238.425C189.656 237.427 188.848 236.619 187.85 236.619C186.852 236.619 186.044 237.427 186.044 238.425C186.044 239.423 186.852 240.231 187.85 240.231Z" fill="#535773" fill-opacity="0.4"/>
        <path d="M111.626 196.159C112.624 196.159 113.432 195.35 113.432 194.353C113.432 193.355 112.624 192.546 111.626 192.546C110.629 192.546 109.82 193.355 109.82 194.353C109.82 195.35 110.629 196.159 111.626 196.159Z" fill="#535773" fill-opacity="0.4"/>
        <path d="M106.569 277.801C107.566 277.801 108.375 276.993 108.375 275.995C108.375 274.997 107.566 274.189 106.569 274.189C105.571 274.189 104.762 274.997 104.762 275.995C104.762 276.993 105.571 277.801 106.569 277.801Z" fill="#535773" fill-opacity="0.4"/>
        <path d="M14.45 218.195C15.4476 218.195 16.2562 217.386 16.2562 216.389C16.2562 215.391 15.4476 214.583 14.45 214.583C13.4524 214.583 12.6437 215.391 12.6437 216.389C12.6437 217.386 13.4524 218.195 14.45 218.195Z" fill="#535773" fill-opacity="0.4"/>
        <path d="M36.8475 139.804C37.845 139.804 38.6537 138.995 38.6537 137.998C38.6537 137 37.845 136.191 36.8475 136.191C35.8499 136.191 35.0412 137 35.0412 137.998C35.0412 138.995 35.8499 139.804 36.8475 139.804Z" fill="#535773" fill-opacity="0.4"/>
        <path d="M45.8787 30.7063C46.8763 30.7063 47.685 29.8976 47.685 28.9C47.685 27.9024 46.8763 27.0938 45.8787 27.0938C44.8812 27.0938 44.0725 27.9024 44.0725 28.9C44.0725 29.8976 44.8812 30.7063 45.8787 30.7063Z" fill="#535773" fill-opacity="0.4"/>
        <path d="M133.662 39.7375C134.66 39.7375 135.469 38.9288 135.469 37.9313C135.469 36.9337 134.66 36.125 133.662 36.125C132.665 36.125 131.856 36.9337 131.856 37.9313C131.856 38.9288 132.665 39.7375 133.662 39.7375Z" fill="#535773" fill-opacity="0.4"/>
        <path d="M208.802 16.9788C209.8 16.9788 210.609 16.1701 210.609 15.1725C210.609 14.175 209.8 13.3663 208.802 13.3663C207.805 13.3663 206.996 14.175 206.996 15.1725C206.996 16.1701 207.805 16.9788 208.802 16.9788Z" fill="#535773" fill-opacity="0.4"/>
        <path d="M85.6162 96.0925C86.6138 96.0925 87.4225 95.2839 87.4225 94.2863C87.4225 93.2887 86.6138 92.48 85.6162 92.48C84.6187 92.48 83.81 93.2887 83.81 94.2863C83.81 95.2839 84.6187 96.0925 85.6162 96.0925Z" fill="#535773" fill-opacity="0.4"/>
        <path d="M140.887 139.804C141.885 139.804 142.694 138.995 142.694 137.998C142.694 137 141.885 136.191 140.887 136.191C139.89 136.191 139.081 137 139.081 137.998C139.081 138.995 139.89 139.804 140.887 139.804Z" fill="#535773" fill-opacity="0.4"/>
    </g>
    <defs>
        <clipPath id="clip0_81_2">
            <rect width="289" height="289" fill="white"/>
        </clipPath>
    </defs>
</svg>

