<svg width="63" height="63" viewBox="0 0 63 63" fill="none" xmlns="http://www.w3.org/2000/svg">
    <circle cx="31.5" cy="31.5" r="31.5" fill="#20222D"/>
    <circle cx="31.5" cy="31.5" r="30.25" stroke="white" stroke-opacity="0.3" stroke-width="2.5"/>
    <path d="M45.5951 20.2156C42.2208 17.4828 36.882 17.0197 36.6531 17.0035C36.4792 16.9891 36.3051 17.0294 36.155 17.119C36.0049 17.2085 35.8863 17.3428 35.8154 17.5033C35.7136 17.7338 35.6272 17.9708 35.5568 18.2129C37.7892 18.5925 40.531 19.3559 43.0118 20.9048C43.1064 20.9639 43.1886 21.0411 43.2535 21.1322C43.3185 21.2232 43.365 21.3262 43.3904 21.4353C43.4158 21.5444 43.4195 21.6575 43.4015 21.768C43.3835 21.8786 43.3439 21.9845 43.2852 22.0797C43.2265 22.1749 43.1497 22.2576 43.0592 22.3229C42.9687 22.3883 42.8663 22.4351 42.7579 22.4606C42.6494 22.4861 42.5371 22.4899 42.4272 22.4718C42.3172 22.4536 42.212 22.4139 42.1173 22.3548C37.8528 19.6911 32.5267 19.5589 31.5 19.5589C30.4741 19.5589 25.1447 19.6919 20.8827 22.3539C20.788 22.413 20.6828 22.4528 20.5728 22.4709C20.4629 22.4891 20.3506 22.4853 20.2421 22.4597C20.0231 22.4082 19.8334 22.2712 19.7148 22.0789C19.5962 21.8866 19.5584 21.6548 19.6096 21.4344C19.6609 21.2141 19.7971 21.0233 19.9882 20.9039C22.469 19.3593 25.2108 18.5925 27.4432 18.2163C27.3143 17.7933 27.1973 17.5263 27.1888 17.5033C27.1183 17.3417 26.999 17.2065 26.8479 17.1168C26.6969 17.0271 26.5216 16.9875 26.3469 17.0035C26.118 17.0205 20.7792 17.4828 17.3583 20.2523C15.5736 21.9138 12 31.6297 12 40.0294C12 40.1795 12.0398 40.3228 12.1128 40.4525C14.5765 44.811 21.3032 45.9497 22.8361 46H22.8623C22.9961 46.0003 23.1281 45.9688 23.2474 45.9081C23.3668 45.8473 23.4702 45.759 23.5491 45.6503L25.0981 43.5043C20.9157 42.4185 18.7792 40.5727 18.6571 40.4627C18.4885 40.313 18.3859 40.1019 18.3719 39.8761C18.3579 39.6502 18.4337 39.428 18.5825 39.2584C18.7314 39.0887 18.9411 38.9855 19.1656 38.9714C19.3901 38.9573 19.611 39.0335 19.7797 39.1833C19.8288 39.2302 23.7636 42.5882 31.5 42.5882C39.2491 42.5882 43.1839 39.2166 43.2237 39.1833C43.3929 39.0346 43.6138 38.9595 43.8379 38.9746C44.0621 38.9896 44.2711 39.0935 44.4192 39.2635C44.4925 39.3472 44.5486 39.4447 44.5844 39.5503C44.6203 39.656 44.6351 39.7676 44.628 39.879C44.6209 39.9904 44.5921 40.0992 44.5431 40.1994C44.4942 40.2995 44.4262 40.389 44.3429 40.4627C44.2208 40.5727 42.0843 42.4185 37.9019 43.5043L39.4518 45.6503C39.5306 45.7588 39.6338 45.8471 39.753 45.9079C39.8722 45.9686 40.004 46.0002 40.1377 46H40.1631C41.6977 45.9497 48.4235 44.8101 50.8881 40.4525C50.9602 40.3228 51 40.1795 51 40.0294C51 31.6297 47.4264 21.9147 45.5951 20.2156ZM25.9891 36.6177C24.3494 36.6177 23.0217 35.0909 23.0217 33.2059C23.0217 31.3209 24.3494 29.7941 25.9891 29.7941C27.6288 29.7941 28.9565 31.3209 28.9565 33.2059C28.9565 35.0909 27.6288 36.6177 25.9891 36.6177ZM37.0109 36.6177C35.3712 36.6177 34.0435 35.0909 34.0435 33.2059C34.0435 31.3209 35.3712 29.7941 37.0109 29.7941C38.6506 29.7941 39.9783 31.3209 39.9783 33.2059C39.9783 35.0909 38.6506 36.6177 37.0109 36.6177Z" fill="white" fill-opacity="0.8"/>
</svg>
