<svg width="63" height="62" viewBox="0 0 63 62" fill="none" xmlns="http://www.w3.org/2000/svg">
    <ellipse cx="31.5" cy="31" rx="31.5" ry="31" fill="#20222D"/>
    <path d="M61.75 31C61.75 47.4117 48.2255 60.75 31.5 60.75C14.7745 60.75 1.25 47.4117 1.25 31C1.25 14.5883 14.7745 1.25 31.5 1.25C48.2255 1.25 61.75 14.5883 61.75 31Z" stroke="#BD2E2E" stroke-opacity="0.29" stroke-width="2.5"/>
    <g clip-path="url(#clip0_0_1)">
        <path d="M18 19.1365C18 18.2274 18.3266 17.4774 18.9797 16.8865C19.6329 16.2956 20.482 16.0002 21.527 16.0002C22.5534 16.0002 23.3838 16.291 24.0183 16.8729C24.6715 17.4729 24.9981 18.2547 24.9981 19.2183C24.9981 20.0911 24.6808 20.8183 24.0463 21.4001C23.3932 22.0001 22.5347 22.3001 21.471 22.3001H21.4431C20.4167 22.3001 19.5862 22.0001 18.9517 21.4001C18.3172 20.8001 18 20.0456 18 19.1365ZM18.3639 43.0001V24.782H24.5782V43.0001H18.3639ZM28.0212 43.0001H34.2355V32.8274C34.2355 32.191 34.3102 31.7001 34.4595 31.3547C34.7207 30.7365 35.1173 30.2137 35.6491 29.7865C36.181 29.3592 36.8481 29.1456 37.6506 29.1456C39.7407 29.1456 40.7857 30.5183 40.7857 33.2638V43.0001H47V32.5547C47 29.8638 46.3469 27.8229 45.0405 26.432C43.7342 25.041 42.0081 24.3456 39.862 24.3456C37.4546 24.3456 35.5792 25.3547 34.2355 27.3729V27.4274H34.2075L34.2355 27.3729V24.782H28.0212C28.0585 25.3638 28.0772 27.1728 28.0772 30.2092C28.0772 33.2456 28.0585 37.5092 28.0212 43.0001Z" fill="#BD2E2E" fill-opacity="0.8"/>
    </g>
    <defs>
        <clipPath id="clip0_0_1">
            <rect width="29" height="27" fill="white" transform="translate(18 16)"/>
        </clipPath>
    </defs>
</svg>
