<svg width="178" height="180" viewBox="0 0 178 180" fill="none" xmlns="http://www.w3.org/2000/svg">
    <path d="M81 180C125.735 180 162 143.735 162 99C162 54.2649 125.735 18 81 18C36.2649 18 0 54.2649 0 99C0 143.735 36.2649 180 81 180Z" fill="#265784"/>
    <path d="M127 135.729V124.348H35V135.729H63.75V145.209H56.0834V149H105.917V145.209H98.25V135.729H127Z" fill="black"/>
    <path d="M65.5796 89.688L62.8498 98.8782L61.3607 94.2034H57.7053L56.2171 98.8782L53.4862 89.688L49.8083 90.758L54.3145 105.925L57.9812 105.96L59.533 101.085L61.0856 105.96L64.7523 105.925L69.2575 90.758L65.5796 89.688Z" fill="black"/>
    <path d="M111.667 71.2651H107.833V75.0567H111.667V71.2651Z" fill="black"/>
    <path d="M87.0467 89.688L84.316 98.8782L82.8278 94.2034H79.1722L77.6842 98.8782L74.9533 89.688L71.2754 90.758L75.7816 105.925L79.4483 105.96L81.0001 101.085L82.5518 105.96L86.2186 105.925L90.7246 90.758L87.0467 89.688Z" fill="black"/>
    <path d="M108.514 89.688L105.783 98.8782L104.295 94.2034H100.639L99.1504 98.8782L96.4204 89.688L92.7425 90.758L97.2479 105.925L100.914 105.96L102.467 101.085L104.019 105.96L107.686 105.925L112.192 90.758L108.514 89.688Z" fill="black"/>
    <path d="M104 71.2651H100.167V75.0567H104V71.2651Z" fill="black"/>
    <path d="M90.5835 71.2651H54.1667V75.0567H90.5835V71.2651Z" fill="black"/>
    <path d="M35 58V120.556H127V58H35ZM115.5 111.077H46.5V82.6397H115.5V111.077H115.5ZM115.5 78.8479H46.5V67.4729H115.5V78.8479H115.5Z" fill="black"/>
    <circle opacity="0.3" cx="81" cy="99" r="81" fill="black" fill-opacity="0.7"/>
</svg>
