<svg width="163" height="163" viewBox="0 0 163 163" fill="none" xmlns="http://www.w3.org/2000/svg">
    <path d="M81.5 163C126.511 163 163 126.511 163 81.5C163 36.4888 126.511 0 81.5 0C36.4888 0 0 36.4888 0 81.5C0 126.511 36.4888 163 81.5 163Z" fill="#265784"/>
    <circle opacity="0.3" cx="81.5" cy="81.5" r="81.5" fill="black" fill-opacity="0.7"/>
    <path d="M117.259 38H44.7403C41.0239 38 38 41.0955 38 44.9014V119.098C38 122.903 41.0239 126 44.7403 126H117.259C120.976 126 124 122.903 124 119.098V44.9014C123.999 41.0944 120.975 38 117.259 38ZM112.691 45.8557C114.286 45.8557 115.578 47.1806 115.578 48.814C115.578 50.4481 114.286 51.7718 112.691 51.7718C111.095 51.7718 109.803 50.4469 109.803 48.814C109.803 47.1806 111.095 45.8557 112.691 45.8557ZM102.342 45.8557C103.938 45.8557 105.23 47.1806 105.23 48.814C105.23 50.4481 103.938 51.7718 102.342 51.7718C100.746 51.7718 99.455 50.4469 99.455 48.814C99.4552 47.1806 100.748 45.8557 102.342 45.8557ZM116.297 118.111H45.7019V59.1154H116.297V118.111ZM80.9995 110.58C93.1648 110.58 103.065 100.442 103.065 87.9791C103.065 75.5171 93.1648 65.3787 80.9995 65.3787C68.8335 65.3787 58.9339 75.5171 58.9339 87.9791C58.9339 100.442 68.8333 110.58 80.9995 110.58ZM80.9995 69.9351C90.7127 69.9351 98.6166 78.0302 98.6166 87.9793C98.6166 97.928 90.7125 106.024 80.9995 106.024C71.2856 106.024 63.3823 97.928 63.3823 87.9793C63.3821 78.03 71.2856 69.9351 80.9995 69.9351ZM78.7753 87.9793V76.589C78.7753 75.3316 79.7717 74.311 80.9995 74.311C82.2272 74.311 83.2235 75.3316 83.2235 76.589V85.7011H92.3983C93.6255 85.7011 94.6224 86.7224 94.6224 87.9791C94.6224 89.2362 93.6253 90.2571 92.3983 90.2571H80.9995C79.7717 90.2573 78.7753 89.2362 78.7753 87.9793Z" fill="black"/>
</svg>
