<svg width="194" height="194" viewBox="0 0 194 194" fill="none" xmlns="http://www.w3.org/2000/svg">
    <path d="M81 172C125.735 172 162 135.735 162 91C162 46.2649 125.735 10 81 10C36.2649 10 0 46.2649 0 91C0 135.735 36.2649 172 81 172Z" fill="#265784"/>
    <path fill-rule="evenodd" clip-rule="evenodd" d="M91.7459 103.318C89.1815 106.744 80.6273 107.632 80.6273 107.632C80.6273 107.632 71.8913 106.78 69.3208 103.396C56.9836 103.396 50.5391 120.934 50.5391 120.934H110.716C110.716 120.928 105.635 103.318 91.7459 103.318Z" fill="black"/>
    <path fill-rule="evenodd" clip-rule="evenodd" d="M92.2794 78.508C92.2794 84.862 86.9384 97 80.3666 97C73.7706 97 68.4417 84.862 68.4417 78.508C68.4417 72.154 73.7706 67 80.3666 67C86.9384 67 92.2794 72.154 92.2794 78.508Z" fill="black"/>
    <path fill-rule="evenodd" clip-rule="evenodd" d="M117.506 91.126C115.256 94.576 108.248 96.412 108.248 96.412C108.248 96.412 100.033 94.606 97.766 91.21C97.766 91.21 97.6932 95.194 94.2679 99.826C105.18 98.434 109.897 108.844 109.897 108.844L128.879 108.88C128.873 108.874 129.721 91.126 117.506 91.126Z" fill="black"/>
    <path fill-rule="evenodd" clip-rule="evenodd" d="M116.814 70.198C116.814 75.286 112.801 84.988 107.848 84.988C102.877 84.988 98.8694 75.286 98.8694 70.198C98.8694 65.122 102.889 61 107.848 61C112.801 61 116.814 65.128 116.814 70.198Z" fill="black"/>
    <path fill-rule="evenodd" clip-rule="evenodd" d="M43.6279 91.126C45.9195 94.552 53.0187 96.376 53.0187 96.376C53.0187 96.376 61.3425 94.582 63.6159 91.21C63.6159 91.21 63.7008 95.17 67.1686 99.766C56.1106 98.386 51.3454 108.718 51.3454 108.718L32.1273 108.748C32.1273 108.748 31.2604 91.126 43.6279 91.126Z" fill="black"/>
    <path fill-rule="evenodd" clip-rule="evenodd" d="M44.1371 70.3961C44.1371 75.3641 48.1626 84.8621 53.1036 84.8621C58.0688 84.8621 62.0761 75.3641 62.0761 70.3961C62.0761 65.4221 58.0627 61.3901 53.1036 61.3901C48.1505 61.3901 44.1371 65.4221 44.1371 70.3961Z" fill="black"/>
    <circle opacity="0.3" cx="81" cy="91" r="81" fill="black" fill-opacity="0.7"/>
</svg>
