<svg width="161" height="161" viewBox="0 0 161 161" fill="none" xmlns="http://www.w3.org/2000/svg">
    <path d="M80.5 161C124.959 161 161 124.959 161 80.5C161 36.0411 124.959 0 80.5 0C36.0411 0 0 36.0411 0 80.5C0 124.959 36.0411 161 80.5 161Z" fill="#265784"/>
    <path d="M86.0966 36.6953L85.441 44.9087H77.7494V72.2626H76.8909C71.7404 72.2626 67.0659 75.2622 64.9405 79.9319L44.7422 124.305H72.2482L74.0191 118.432C86.8178 114.551 90.1807 102.402 90.1807 102.402H108.006V96.1028L111.684 96.3938L116.258 39.0806L86.0966 36.6953ZM105.255 93.9216C102.546 94.6507 100.471 96.8871 99.9893 99.6646H84.3529C83.3201 104.923 79.412 109.706 74.1455 111.847C73.9754 111.917 73.799 111.949 73.6258 111.949C73.0837 111.949 72.5699 111.628 72.3519 111.098C72.0648 110.398 72.4019 109.599 73.105 109.313C78.2681 107.214 81.8741 102.12 81.8741 96.9268C81.8741 96.9243 81.8748 95.5577 81.8748 95.5577H95.8573C97.9348 95.5577 99.7161 93.9397 99.7531 91.8722C99.7909 89.7668 98.0888 88.0494 95.9819 88.0459L71.2157 88.0288C70.4564 88.0288 69.8403 87.4159 69.8403 86.6598C69.8403 85.9036 70.456 85.2907 71.2157 85.2907H80.4997V53.1172C83.2936 52.5498 85.4902 50.3926 86.1231 47.6465H99.7406C100.366 50.3686 102.525 52.4932 105.255 53.0936V93.9216ZM109.616 87.7226C109.055 87.8272 108.516 87.9993 108.006 88.2253V44.9087H89.1454C91.5401 44.2801 93.4748 42.4615 94.2261 40.0846L107.801 41.1582C108.208 43.921 110.19 46.2089 112.865 47.0224L109.616 87.7226ZM102.573 73.3397C102.583 68.0981 98.378 63.6873 92.9009 63.6773C87.6348 63.6675 83.2028 68.0626 83.1933 73.3046C83.1835 78.5462 87.3886 82.9569 92.8656 82.967C98.1318 82.9767 102.563 78.5816 102.573 73.3397ZM87.1944 74.1508L85.5091 74.1476L85.5126 72.2605L86.9872 72.2633C86.9886 71.4244 87.412 70.3769 87.624 69.5387L89.7294 70.1718C89.5181 70.5908 89.3058 71.429 89.3033 72.6871C89.3016 73.7353 89.7214 74.3653 90.3536 74.3666C90.9858 74.368 91.4081 73.7395 92.0427 72.2731C92.889 70.1777 93.7336 69.1309 95.4189 69.1344C96.8932 69.3468 98.1545 70.6071 98.5733 72.2852L100.259 72.2884L100.255 74.1754L98.7804 74.1727C98.7787 75.0116 98.3543 76.688 98.1426 77.3165L96.0371 76.6834C96.4598 76.0552 96.8831 74.7981 96.8852 73.7496C96.8873 72.4914 96.4674 71.8618 95.6246 71.8604C94.9928 71.859 94.5705 72.2779 93.9358 73.7443C93.3005 75.63 92.2446 77.0961 90.5593 77.093C88.8741 77.0891 87.6117 76.0382 87.1944 74.1508Z" fill="black"/>
    <circle opacity="0.3" cx="80.5" cy="80.5" r="80.5" fill="black" fill-opacity="0.7"/>
</svg>
