<svg width="34" height="34" viewBox="0 0 34 34" fill="none" xmlns="http://www.w3.org/2000/svg">
    <path d="M7.19751 0H8.72996V1.51406H10.1318V0H11.6643V4.58496H10.1319V3.04964H8.73003V4.58496H7.19757L7.19751 0Z" fill="#5CAAF2"/>
    <path d="M13.6797 1.52044H12.3306V0H16.562V1.52044H15.2122V4.58496H13.6797L13.6797 1.52044Z" fill="#5CAAF2"/>
    <path d="M17.2335 0H18.8315L19.8144 1.61102L20.7963 0H22.3949V4.58496H20.8687V2.3124L19.8144 3.94261H19.7881L18.7329 2.3124V4.58496H17.2335V0Z" fill="#5CAAF2"/>
    <path d="M23.1576 0H24.6906V3.06944H26.8456V4.58496H23.1576V0Z" fill="#5CAAF2"/>
    <path fill-rule="evenodd" clip-rule="evenodd" d="M7.1484 31.2692L4.25 6.68182H29.75L26.8497 31.2654L16.9854 34L7.1484 31.2692ZM13.0099 17.8113L12.7343 14.7233H24.2736L24.5436 11.7077H9.43868L10.252 20.8268H20.7029L20.353 24.7377L16.9897 25.6455L16.9872 25.6465L13.6289 24.7397L13.4142 22.3346H10.387L10.8095 27.0695L16.9867 28.7843L23.1717 27.0694L23.9257 18.6211L23.9992 17.8113H13.0099Z" fill="#5CAAF2"/>
</svg>
