<svg width="39" height="39" viewBox="0 0 39 39" fill="none" xmlns="http://www.w3.org/2000/svg">
    <g clip-path="url(#clip0_137_145)">
        <path d="M33.5558 21.6889C33.6034 21.6877 33.6594 21.6864 33.7167 21.6864C34.7332 21.6864 35.6947 21.9229 36.5479 22.3446L36.5101 22.3275C37.2877 22.7065 37.9263 23.2672 38.3882 23.9545L38.3992 23.9716C38.7636 24.503 38.9805 25.1599 38.9805 25.8668C38.9805 25.9179 38.9793 25.9691 38.9768 26.0191V26.0118C38.9391 26.7174 38.6185 27.3402 38.1262 27.7765L38.1237 27.779C37.8544 28.0434 37.529 28.2506 37.167 28.3823L37.1487 28.3883C36.9456 28.429 36.8339 28.3985 36.8136 28.2969C36.7932 28.1954 36.8847 28.0837 37.0878 27.9618C37.6387 27.6278 38.0372 27.0892 38.1822 26.4542L38.1859 26.4383C38.1895 26.3872 38.192 26.3274 38.192 26.2665C38.192 25.8875 38.1018 25.5292 37.9421 25.2123L37.9482 25.2257C37.6837 24.6736 37.2889 24.2202 36.8026 23.8924L36.7904 23.8851C36.0628 23.4171 35.1902 23.1099 34.2517 23.0332L34.2322 23.0319C33.9129 22.9844 33.5449 22.9576 33.1695 22.9576C32.1933 22.9576 31.2609 23.1416 30.4029 23.4768L30.4541 23.4585C30.6308 23.8717 30.7417 24.3506 30.7576 24.8528V24.8588C30.7381 25.8887 30.1848 26.7845 29.3621 27.2842L29.3487 27.2915C28.9709 27.5596 28.5395 27.7948 28.08 27.9776L28.0373 27.9923C27.7582 28.1288 27.4304 28.208 27.0843 28.208C27.0441 28.208 27.0051 28.2068 26.9661 28.2043H26.9722C26.2011 28.0426 26.0183 27.3723 26.4237 26.1934C26.6004 25.6803 26.8478 25.2354 27.1611 24.8442L27.1537 24.8528C27.5547 24.3287 27.9947 23.8692 28.481 23.4622L28.4944 23.4512L28.3749 23.2732C28.1519 22.893 27.9472 22.4506 27.7826 21.9887L27.7656 21.9326C27.6437 21.5264 27.5421 21.1408 27.4609 20.776L27.3999 20.3495L26.7906 21.5061C26.2624 22.4811 25.7546 23.3338 25.2671 24.0642L25.0843 24.3689C25.2891 24.8662 25.4402 25.4426 25.5084 26.0447L25.5109 26.0752C25.5157 26.1324 25.5182 26.2007 25.5182 26.2689C25.5182 27.1928 25.0624 28.0093 24.3628 28.5078L24.3543 28.5139C24.0203 28.7198 23.6218 28.9331 23.2087 29.1232L23.1355 29.1537C22.7053 29.3402 22.2068 29.4621 21.684 29.4889H21.673C21.6328 29.4913 21.5853 29.4938 21.5377 29.4938C21.2331 29.4938 20.9442 29.4243 20.6858 29.3012L20.698 29.3061C20.5432 29.1732 20.4457 28.9782 20.4457 28.7601C20.4457 28.6492 20.4713 28.5431 20.5164 28.4493L20.514 28.4542C21.0015 27.7704 21.4817 27.1757 21.9923 26.6078L21.9765 26.626L23.3171 24.921L23.0746 24.3726C22.8796 24.0143 22.6931 23.5913 22.5432 23.1526L22.5262 23.0941C22.4043 22.6878 22.3027 22.3023 22.2215 21.9375L22.1605 21.5109L21.5512 22.9734C21.0645 24.1101 20.6176 25.0847 20.2105 25.8972C19.6036 27.116 19.0958 28.0503 18.6871 28.7003L18.5652 28.8832C18.0785 29.6542 17.6113 30.0398 17.1637 30.0398C16.716 30.0398 16.4125 29.7554 16.2532 29.1866C16.1362 28.7674 16.068 28.286 16.068 27.7887C16.068 27.7448 16.068 27.701 16.0692 27.6571V27.6632L16.1911 26.8101V26.871C15.8661 27.6421 15.5411 28.3526 15.2161 29.0026C15.0004 29.4243 14.7786 29.7838 14.5299 30.1226L14.5458 30.0995C14.2947 30.3627 13.9413 30.526 13.5501 30.526C13.5464 30.526 13.544 30.526 13.5403 30.526C13.5147 30.5285 13.4855 30.5285 13.4562 30.5285C13.1479 30.5285 12.8676 30.4115 12.6555 30.2201L12.6567 30.2213C12.2314 29.785 11.9157 29.2403 11.7524 28.6321L11.7463 28.6065C11.5464 28.052 11.4319 27.4109 11.4319 26.743C11.4319 26.6565 11.4343 26.5712 11.438 26.4871V26.4993C11.5342 25.5292 11.728 24.6407 12.012 23.7937L11.9864 23.8802L9.79387 25.1599V25.2208C10.112 25.8814 10.2984 26.6565 10.2984 27.4755C10.2984 27.6254 10.2923 27.7741 10.2802 27.9203L10.2814 27.9008C10.2168 29.1562 9.81581 30.3054 9.16865 31.2768L9.1845 31.2524C8.50565 32.3298 7.527 33.1622 6.36431 33.6436L6.32409 33.6582C5.66962 33.9519 4.90425 34.1238 4.09987 34.1238C3.59044 34.1238 3.09562 34.0555 2.62762 33.9263L2.66662 33.9349C2.27906 33.8045 1.96219 33.5461 1.76109 33.2122L1.75744 33.2048C1.47347 32.7929 1.29431 32.2896 1.26628 31.7472V31.7399C1.25287 31.6168 1.24556 31.4742 1.24556 31.3292C1.24556 30.704 1.38815 30.1117 1.64287 29.5839L1.6319 29.6083C2.33147 28.4152 3.29915 27.4487 4.45453 26.7686L4.49109 26.7491C5.30887 26.1824 6.24853 25.6327 7.22962 25.1538L7.35881 25.0965L7.6635 24.9137C7.29787 24.6293 6.62756 24.1418 5.65256 23.4512C4.34972 22.5786 3.2175 21.6974 2.14987 20.7443L2.18034 20.7712C1.14806 19.8827 0.396092 18.6956 0.058498 17.344L0.048748 17.2977C0.0170605 17.11 -0.0012207 16.8943 -0.0012207 16.6749C-0.0012207 15.9876 0.175498 15.3416 0.485061 14.7798L0.475311 14.8005C1.15781 13.3331 2.10356 12.0961 3.26381 11.1016L3.27844 11.0894C4.53375 9.90356 5.95481 8.87128 7.49775 8.03522L7.60378 7.98281C8.98219 7.18697 10.5922 6.44719 12.2704 5.85366L12.4776 5.79028C14.0363 5.21991 15.8364 4.88597 17.7133 4.87988H17.7157C17.8011 4.87744 17.9022 4.875 18.0034 4.875C19.5158 4.875 20.9467 5.22478 22.219 5.84756L22.163 5.82197C23.2598 6.32166 24.0813 7.26253 24.4103 8.41303L24.4177 8.44228C24.5188 8.83472 24.5761 9.28566 24.5761 9.75C24.5761 10.5203 24.4164 11.2539 24.13 11.9194L24.1434 11.884C23.6218 13.1479 22.8796 14.224 21.9533 15.1101L21.9497 15.1137C21.0112 16.0436 19.8863 16.7871 18.6371 17.2831L18.5701 17.3062C17.2612 17.8681 15.7414 18.2215 14.146 18.28L14.1229 18.2812C13.8889 18.3081 13.6183 18.3227 13.3441 18.3227C12.6226 18.3227 11.9267 18.2191 11.2686 18.0253L11.321 18.0387C10.7323 17.851 10.2241 17.5597 9.79265 17.1819L9.79753 17.1856C9.49528 16.9394 9.24909 16.6359 9.07359 16.291L9.06628 16.2752C8.9444 15.9502 8.93425 15.7572 9.03581 15.6963C9.13737 15.6353 9.20847 15.6252 9.24909 15.6658L9.55378 15.9705C9.89381 16.2862 10.2997 16.5348 10.7482 16.6932L10.7725 16.7005C11.3892 16.915 12.101 17.0393 12.8407 17.0393C13.0784 17.0393 13.3124 17.0272 13.5427 17.0016L13.5147 17.004C15.4867 16.7712 17.2648 16.0985 18.7992 15.0869L18.7541 15.1149C20.0509 14.3435 21.1002 13.2832 21.8388 12.0193L21.8607 11.9779C22.2276 11.4392 22.4469 10.7737 22.4469 10.0571C22.4469 9.61716 22.3641 9.19547 22.2129 8.80791L22.2215 8.83106C21.7657 8.11078 21.0283 7.60378 20.1679 7.46363L20.1508 7.46119C19.4829 7.29666 18.7151 7.20159 17.9266 7.20159C17.2916 7.20159 16.6701 7.26253 16.0692 7.37953L16.1302 7.36978C14.0741 7.74028 12.2362 8.37525 10.541 9.24788L10.6519 9.19547C5.65662 11.7142 3.07734 14.2935 2.91403 16.9333V16.993C2.91403 18.057 3.33206 19.0235 4.01334 19.7377L4.01212 19.7364C4.78847 20.5993 5.64647 21.361 6.58369 22.0192L6.63122 22.0508C7.48556 22.6895 8.24119 23.3488 8.9444 24.0606L8.94562 24.063L9.0675 24.1849L12.9675 22.0533C13.4123 21.4098 13.9474 20.8662 14.5616 20.4275L14.5811 20.4141C15.0686 20.0046 15.6877 19.7377 16.3666 19.684L16.3776 19.6828C16.4019 19.6804 16.43 19.6804 16.4592 19.6804C16.9138 19.6804 17.3038 19.9546 17.472 20.347L17.4744 20.3543C17.6024 20.6408 17.6767 20.9759 17.6767 21.3281C17.6767 21.4354 17.6694 21.5414 17.656 21.6462L17.6572 21.634L17.539 22.2349L17.7218 22.113C17.8486 22.0167 18.0082 21.9594 18.1813 21.9594C18.291 21.9594 18.3946 21.9826 18.4884 22.024L18.4836 22.0216C18.7176 22.0825 18.887 22.2922 18.887 22.5408C18.887 22.5834 18.8821 22.6249 18.8723 22.6651L18.8736 22.6614L18.6907 23.3318C18.3251 24.7934 18.0818 25.8493 17.9607 26.4993C17.8998 26.7101 17.8657 26.9527 17.8657 27.2037C17.8657 27.2561 17.8669 27.3073 17.8705 27.3585V27.3512C17.8908 27.5949 17.9213 27.7168 17.9619 27.7168C18.0026 27.7168 18.0834 27.5949 18.2045 27.3512L18.3873 26.9246C18.4279 26.9246 18.4279 26.9449 18.3873 26.9856L19.0576 25.584C20.642 22.0919 21.4947 20.1419 21.6157 19.734L21.9814 18.5774C22.022 18.4962 22.1845 18.4153 22.4689 18.3349C22.7577 18.2569 23.088 18.2118 23.4292 18.2118C23.4573 18.2118 23.4853 18.2118 23.5121 18.213H23.5085C24.0772 18.213 24.3616 18.3552 24.3616 18.6396L24.3007 18.9442C24.1642 19.3196 24.0289 19.7888 23.9241 20.269L23.9107 20.3458C23.8863 20.503 23.8717 20.6834 23.8717 20.8687C23.8717 21.1148 23.896 21.3549 23.9436 21.5877L23.9399 21.5646L24.0008 21.8071C24.1252 22.3153 24.3141 22.7614 24.5615 23.1684L24.5493 23.1477C25.036 22.336 25.5032 21.5036 25.9508 20.6505C26.3043 20.0618 26.6333 19.3793 26.8978 18.6652L26.9258 18.5798C27.0172 18.1204 27.1221 17.7328 27.25 17.355L27.2305 17.4232C27.2712 17.3014 27.4446 17.21 27.7509 17.149C28.041 17.0905 28.3737 17.0576 28.7137 17.0576H28.7576H28.7552C29.3239 17.0576 29.6274 17.1998 29.6656 17.4842L29.5437 17.7267C29.3987 18.1362 29.2719 18.6286 29.1866 19.1344L29.1793 19.1892C29.1683 19.3074 29.161 19.4439 29.161 19.5829C29.161 19.8742 29.1903 20.1593 29.2451 20.4348L29.2402 20.4068V20.6493C29.3804 21.1807 29.5888 21.6474 29.8618 22.0703L29.8496 22.0508L30.0324 22.4774C31.0501 21.9777 32.2469 21.6852 33.512 21.6852H33.5595H33.5571L33.5558 21.6889ZM7.42706 30.5285C8.27409 29.6534 8.79694 28.459 8.79694 27.1428C8.79694 26.6346 8.71894 26.1446 8.57512 25.6839L8.58487 25.7181L7.60987 26.3274C6.61537 26.8942 5.75494 27.5267 4.97615 28.2458L4.9859 28.2372C4.39481 28.7808 3.9585 29.484 3.744 30.2774L3.73669 30.3079C3.55387 31.0594 3.64528 31.5469 4.0109 31.7704C4.23394 31.8728 4.49597 31.9325 4.77019 31.9325C5.07 31.9325 5.35397 31.8618 5.60381 31.735L5.59284 31.7399C6.31678 31.4767 6.92981 31.0586 7.41731 30.5236L7.42097 30.5199L7.42706 30.5285ZM15.589 24.9173C15.7922 24.3892 16.0156 23.7595 16.2593 23.0283C16.5843 22.0533 16.6961 21.4849 16.5945 21.3233C16.4929 21.1616 16.3 21.1413 16.0156 21.2623C15.6768 21.4268 15.3928 21.6523 15.1661 21.929L15.1625 21.9338C14.909 22.2544 14.6677 22.6127 14.4532 22.9893L14.4312 23.0307C14.185 23.4341 13.9766 23.8985 13.8316 24.3908L13.8206 24.4323C13.5854 25.0697 13.4489 25.807 13.4489 26.5748C13.4489 26.6784 13.4513 26.7808 13.4562 26.8832V26.8686C13.4968 27.6802 13.6268 28.117 13.8462 28.1787C14.0656 28.2405 14.3195 27.9459 14.6079 27.2951C14.887 26.7918 15.1357 26.2068 15.3209 25.5938L15.338 25.5279C15.459 25.2403 15.5419 25.0368 15.5866 24.9173H15.589ZM22.3482 28.147C23.1928 27.768 23.7876 26.9697 23.8704 26.0252L23.8717 26.0154V25.9545L23.2013 26.8076L21.9838 28.1483C21.9655 28.1629 21.9533 28.1848 21.9533 28.2092C21.9533 28.2336 21.9655 28.2555 21.9826 28.2701C22.0216 28.3099 22.1435 28.2693 22.3482 28.1483V28.147ZM27.5876 26.9892C28.509 26.726 29.172 25.8911 29.172 24.9027C29.172 24.8869 29.172 24.871 29.172 24.8552V24.8576C29.1598 24.6139 29.1159 24.3847 29.044 24.1678L29.0489 24.1861C28.5748 24.6078 28.186 25.1123 27.9045 25.6815L27.8911 25.7095C27.5247 26.44 27.4223 26.8657 27.584 26.9868L27.5876 26.9892Z" fill="#5CAAF2"/>
    </g>
    <defs>
        <clipPath id="clip0_137_145">
            <rect width="39" height="39" fill="white"/>
        </clipPath>
    </defs>
</svg>
