<svg width="33" height="33" viewBox="0 0 33 33" fill="none" xmlns="http://www.w3.org/2000/svg">
    <path d="M20.6823 26.8125C20.9401 27.1849 21.0977 27.1563 21.2981 27.0703C21.4986 26.9843 31.8112 23.5039 32.1262 23.3894C32.4413 23.2748 32.3411 23.1745 32.241 23.0169C32.1407 22.8593 28.7031 18.1901 28.5312 17.918C28.3593 17.6458 28.2734 17.7031 28.0012 17.7891L17.0693 20.6336C17.0693 20.6336 20.4245 26.44 20.6823 26.8125ZM33 22.0578V16.5924C31.7701 16.9201 30.2144 17.3344 29.6003 17.4977C30.5268 18.7373 31.9752 20.6772 33 22.0578ZM29.5897 10.7664C29.4213 10.8047 25.6907 11.4788 25.4609 11.5094C25.2312 11.5401 25.3077 11.6703 25.3996 11.8005L28.6825 16.3048C28.6825 16.3048 32.6965 15.309 32.9417 15.2554C32.9615 15.251 32.981 15.2464 33 15.2416V14.6452C32.2703 13.72 30.2826 11.2011 30.1108 10.9657C29.904 10.6822 29.7584 10.7282 29.5897 10.7664V10.7664Z" fill="#5CAAF2"/>
    <path d="M6.11738 3.6911C6.92524 3.65436 6.99897 3.83818 7.35385 4.36451L16.2703 19.2715L27.4818 16.5857C26.8606 15.7052 24.0406 11.7071 23.768 11.3256C23.4617 10.8966 23.7757 10.6974 24.2737 10.6132C24.7715 10.5289 29.0613 9.80886 29.4289 9.75524C29.7967 9.70161 30.0879 9.57142 30.6852 10.2915C30.991 10.6599 32.0274 11.9505 33 13.1603V6.1875C33 4.4831 32.3948 3.02569 31.1846 1.81539C29.9743 0.605215 28.5169 0 26.8125 0H6.18751C4.48311 0 3.0257 0.605215 1.8154 1.81539C1.12124 2.5098 0.627139 3.28543 0.331299 4.14227C2.35229 3.97624 5.55213 3.71688 6.11751 3.6911H6.11738Z" fill="#5CAAF2"/>
    <path d="M21.6935 28.8188C20.7481 29.1052 20.3241 29.2474 19.7083 28.388C19.2471 27.7444 16.7529 23.252 15.53 21.0374C13.2155 21.6435 8.97974 22.749 7.75822 23.0425C6.5661 23.329 6.05692 22.6142 5.86111 22.1737C5.72382 21.8646 2.22866 14.329 0 9.49396V26.8125C0 28.517 0.605215 29.9742 1.81539 31.1846C3.02569 32.3948 4.4831 33 6.1875 33H26.8125C28.5169 33 29.9743 32.3948 31.1846 31.1846C32.3948 29.9742 33 28.517 33 26.8125V24.7782C30.4683 25.7043 22.3304 28.6258 21.6935 28.8188Z" fill="#5CAAF2"/>
    <path d="M7.78743 21.3067C8.12258 21.23 14.402 19.7272 14.5361 19.6984C14.6701 19.6697 14.7562 19.5931 14.6126 19.3443C14.469 19.0955 6.24223 4.89521 6.24223 4.89521C6.1663 4.76489 6.18796 4.72144 5.98158 4.73227C5.79763 4.74207 1.1427 5.1574 0.065041 5.24738C0.03323 5.47525 0.0133941 5.70463 0.00561523 5.93458C1.09964 8.17433 7.37892 21.1245 7.41412 21.23C7.4524 21.3449 7.4524 21.3832 7.78743 21.3067V21.3067Z" fill="#5CAAF2"/>
</svg>

