<svg width="40" height="40" viewBox="0 0 40 40" fill="none" xmlns="http://www.w3.org/2000/svg">
    <path d="M35.0262 30.2013L20.5862 38.3325V31.9975L29.5837 27.0688L35.0262 30.2013ZM36.0162 29.31V12.2988L30.73 15.3388V26.27L36.0162 29.31ZM4.87623 30.2013L19.3162 38.3325V31.9975L10.3187 27.0688L4.87623 30.2013ZM3.88623 29.31V12.2988L9.17248 15.3388V26.27L3.88623 29.31ZM4.50498 11.1975L19.3162 2.85751V8.98376L9.75873 14.2188L4.50498 11.1975ZM35.3975 11.1975L20.5862 2.85751V8.98376L30.1437 14.2188L35.3975 11.1975ZM19.3162 30.56L10.4425 25.6963V16.0675L19.3162 21.1713V30.56ZM20.5862 30.56L29.46 25.6963V16.0675L20.5862 21.1713V30.56ZM11.0412 14.955L19.9537 10.0788L28.8662 14.955L19.9537 20.0788L11.0412 14.955Z" fill="#5CAAF2"/>
</svg>
