<svg width="39" height="39" viewBox="0 0 39 39" fill="none" xmlns="http://www.w3.org/2000/svg">
<path d="M3.20605 6.86459V38.9245H35.266V6.86459H3.20605ZM27.6093 21.3859C28.59 21.3859 29.4261 21.5745 30.1176 21.9516C30.809 22.3288 31.3937 22.9449 31.8714 23.7998L29.5329 25.3085C29.2815 24.8559 29.0049 24.529 28.7031 24.3278C28.4014 24.1267 28.0368 24.0261 27.6093 24.0261C27.1819 24.0261 26.8361 24.1455 26.5721 24.3844C26.3081 24.6233 26.1761 24.9313 26.1761 25.3085C26.1761 25.736 26.3144 26.088 26.591 26.3646C26.8424 26.5909 27.3202 26.8549 28.0242 27.1567L28.7786 27.4584C30.1616 28.0619 31.1422 28.6779 31.7206 29.3066C32.4246 30.0609 32.7766 31.029 32.7766 32.2108C32.7766 33.5184 32.2989 34.5493 31.3434 35.3037C30.4382 36.0329 29.2438 36.3975 27.7602 36.3975C26.4275 36.3975 25.2834 36.1083 24.3279 35.53C23.4478 34.9768 22.7689 34.235 22.2912 33.3046L24.7428 31.9091C25.0948 32.4874 25.4846 32.9274 25.912 33.2292C26.4149 33.5561 27.0184 33.7195 27.7225 33.7195C28.326 33.7195 28.8163 33.5812 29.1935 33.3046C29.5707 33.028 29.7592 32.6634 29.7592 32.2108C29.7592 31.7582 29.5707 31.381 29.1935 31.0793C28.9169 30.8781 28.3763 30.6015 27.5716 30.2495L26.8173 29.91C25.6103 29.4071 24.7302 28.8414 24.177 28.2128C23.5233 27.4835 23.1964 26.5406 23.1964 25.3839C23.1964 24.2273 23.5987 23.2717 24.4033 22.5174C25.208 21.763 26.2767 21.3859 27.6093 21.3859ZM17.6519 21.5745H20.6693V31.8714C20.6693 33.3801 20.2418 34.5242 19.3869 35.3037C18.6074 36.0329 17.5262 36.3975 16.1432 36.3975C15.0117 36.3975 14.0436 36.1334 13.2389 35.6054C12.56 35.1276 12.0194 34.4739 11.6171 33.6441L14.1064 32.1731C14.383 32.7011 14.6345 33.0657 14.8608 33.2669C15.1625 33.5686 15.5523 33.7195 16.03 33.7195C16.5581 33.7195 16.9478 33.5938 17.1993 33.3423C17.501 33.0406 17.6519 32.5377 17.6519 31.8336V21.5745Z" fill="#5CAAF2"/>
</svg>
