<svg width="64" height="62" viewBox="0 0 64 62" fill="none" xmlns="http://www.w3.org/2000/svg">
    <ellipse cx="32" cy="31" rx="32" ry="31" fill="#20222D"/>
    <path d="M62.75 31C62.75 47.3934 49.0205 60.75 32 60.75C14.9795 60.75 1.25 47.3934 1.25 31C1.25 14.6066 14.9795 1.25 32 1.25C49.0205 1.25 62.75 14.6066 62.75 31Z" stroke="#00ACEE" stroke-opacity="0.29" stroke-width="2.5"/>
    <path d="M52 20.6699C50.5497 21.2923 49.0043 21.7048 47.3931 21.9052C49.0506 20.937 50.3157 19.4156 50.9104 17.5818C49.3651 18.4832 47.6588 19.1199 45.8404 19.4752C44.3731 17.9467 42.2817 17 40.0002 17C35.5737 17 32.0101 20.5149 32.0101 24.8239C32.0101 25.4439 32.0637 26.0401 32.1953 26.6076C25.5483 26.2905 19.6666 23.1738 15.7154 18.426C15.0256 19.5968 14.6209 20.937 14.6209 22.3797C14.6209 25.0886 16.0469 27.4899 18.1724 28.8802C16.8878 28.8563 15.6276 28.4915 14.56 27.9168C14.56 27.9406 14.56 27.9716 14.56 28.0026C14.56 31.8037 17.3314 34.9609 20.9657 35.6882C20.3149 35.8623 19.6056 35.9458 18.8695 35.9458C18.3576 35.9458 17.8409 35.9172 17.3558 35.8122C18.3917 38.9098 21.3314 41.1872 24.8268 41.2611C22.1065 43.3428 18.6526 44.5972 14.9134 44.5972C14.2578 44.5972 13.6289 44.5685 13 44.4898C16.5417 46.7242 20.7391 48 25.2655 48C39.9783 48 48.022 36.0769 48.022 25.742C48.022 25.3962 48.0098 25.0624 47.9927 24.7309C49.5796 23.6292 50.9129 22.2533 52 20.6699Z" fill="#00ACEE" fill-opacity="0.8"/>
</svg>
